<?xml version="1.0" encoding="UTF-8" standalone="no"?>
<!-- Created with Inkscape (http://www.inkscape.org/) -->

<svg
   xmlns:dc="http://purl.org/dc/elements/1.1/"
   xmlns:cc="http://creativecommons.org/ns#"
   xmlns:rdf="http://www.w3.org/1999/02/22-rdf-syntax-ns#"
   xmlns:svg="http://www.w3.org/2000/svg"
   xmlns="http://www.w3.org/2000/svg"
   xmlns:sodipodi="http://sodipodi.sourceforge.net/DTD/sodipodi-0.dtd"
   xmlns:inkscape="http://www.inkscape.org/namespaces/inkscape"
   width="750"
   height="3400"
   viewBox="0 0 198.43749 899.58332"
   version="1.1"
   id="svg6707"
   inkscape:version="0.92.5 (2060ec1f9f, 2020-04-08)"
   sodipodi:docname="tower_LN.svg"
   inkscape:export-filename="/home/mauricio/Documents/Doutorado/Qualification/tower_LN.png"
   inkscape:export-xdpi="96"
   inkscape:export-ydpi="96">
  <defs
     id="defs6701" />
  <sodipodi:namedview
     id="base"
     pagecolor="#ffffff"
     bordercolor="#666666"
     borderopacity="1.0"
     inkscape:pageopacity="1"
     inkscape:pageshadow="2"
     inkscape:zoom="0.1767767"
     inkscape:cx="-1372.8636"
     inkscape:cy="1478.8551"
     inkscape:document-units="mm"
     inkscape:current-layer="g6970"
     showgrid="false"
     inkscape:window-width="1600"
     inkscape:window-height="863"
     inkscape:window-x="0"
     inkscape:window-y="0"
     inkscape:window-maximized="1"
     units="px"
     showguides="false"
     inkscape:guide-bbox="true"
     inkscape:pagecheckerboard="false" />
  <metadata
     id="metadata6704">
    <rdf:RDF>
      <cc:Work
         rdf:about="">
        <dc:format>image/svg+xml</dc:format>
        <dc:type
           rdf:resource="http://purl.org/dc/dcmitype/StillImage" />
        <dc:title></dc:title>
      </cc:Work>
    </rdf:RDF>
  </metadata>
  <g
     inkscape:label="Layer 1"
     inkscape:groupmode="layer"
     id="layer1"
     transform="translate(0,602.58328)">
    <g
       transform="matrix(0.26458333,0,0,0.26458333,-77.839785,23.687686)"
       id="g6611">
      <g
         id="g7608"
         transform="translate(118.79394,141.7746)">
        <g
           transform="translate(82,-286.88333)"
           id="g6970">
          <g
             transform="matrix(0,-0.34900006,0.48891038,0,605.92627,1398.5051)"
             id="g5593">
            <path
               style="fill:none;stroke:#000000;stroke-width:14.5;stroke-linecap:butt;stroke-linejoin:miter;stroke-miterlimit:4;stroke-dasharray:none;stroke-opacity:1"
               d="m 1153.4679,-70.916487 61.7337,0.138107 61.7338,0.138107 61.7337,0.138106 61.7338,0.138107 61.7337,0.138107 61.7337,0.138107 61.7338,0.138106 61.7337,0.138107 61.7337,0.138107 61.7338,0.138107 61.7337,0.138107 61.7338,0.138106 61.7337,0.138107 61.7337,0.138107 61.7338,0.138107 61.7337,0.138107 61.7337,0.138106 61.7338,0.138107 61.7337,0.138107 61.7337,0.138107 61.7338,0.138106 61.7337,0.138107 61.7338,0.138107 61.7337,0.138107 61.7337,0.138107 61.7338,0.138106 61.7337,0.138107 61.7338,0.138107 61.7337,0.138107 61.7337,0.138106 61.7338,0.138107 61.7337,0.138107"
               id="path5527"
               inkscape:connector-curvature="0"
               sodipodi:nodetypes="ccccccccccccccccccccccccccccccccc" />
            <path
               sodipodi:nodetypes="ccccscccscccscccscccscccscccscccc"
               inkscape:connector-curvature="0"
               id="path5539"
               d="m 1153.4679,71.083513 61.7337,-141.861893 61.7338,142.138107 61.7337,-141.861894 61.9961,142.374197 61.4714,-142.097983 61.7337,142.138107 61.7338,-141.861894 62.0099,142.178884 61.4575,-141.90267 61.7338,142.138107 61.7337,-141.861893 61.7337,142.455096 61.7338,-141.626456 61.7337,141.58568 61.7338,-141.861893 61.5384,141.778731 61.929,-141.502518 61.7338,142.138107 61.7337,-141.861893 61.5385,141.974044 61.929,-141.697831 61.7337,142.138106 61.7338,-141.861892 61.7337,141.626455 61.7337,-141.350241 61.7338,142.138105 61.7337,-141.861892 61.1814,141.626455 62.2861,-141.350241 61.7337,142.138106 61.7338,-141.861893 61.7337,142.138107"
               style="fill:none;stroke:#000000;stroke-width:14.5;stroke-linecap:butt;stroke-linejoin:miter;stroke-miterlimit:4;stroke-dasharray:none;stroke-opacity:1" />
            <path
               sodipodi:nodetypes="csssssssssssssssc"
               inkscape:connector-curvature="0"
               id="path5541"
               d="m 1153.4679,71.083513 c 41.1558,0.09207 82.3116,0.184143 123.4675,0.276214 41.1558,0.09207 82.3116,0.184142 123.4674,0.276214 41.1559,0.09207 82.3117,0.184142 123.4675,0.276213 41.1558,0.09207 82.3117,0.184143 123.4675,0.276214 l 123.4675,0.276213 c 41.1558,0.09207 82.3116,0.184142 123.4674,0.276214 41.1559,0.09207 82.3117,0.184142 123.4675,0.276213 41.1559,0.09207 82.3117,0.184142 123.4675,0.276213 41.1558,0.09207 82.3117,0.184142 123.4675,0.276214 l 123.4675,0.276213 123.4674,0.276213 c 41.1559,0.09207 82.3117,0.184143 123.4675,0.276214 l 123.4675,0.276213 c 41.1558,0.09207 82.3116,0.184143 123.4675,0.276214 41.1558,0.09207 82.3116,0.184143 123.4674,0.276214 41.1559,0.09207 82.3117,0.184143 123.4675,0.276214"
               style="fill:none;stroke:#000000;stroke-width:14.5;stroke-linecap:butt;stroke-linejoin:miter;stroke-miterlimit:4;stroke-dasharray:none;stroke-opacity:1" />
            <path
               sodipodi:nodetypes="ccccccccccccccccccccccccccccccccc"
               inkscape:connector-curvature="0"
               id="path5543"
               d="m 1153.4679,-70.916487 61.7337,0.138107 61.7338,0.138107 61.7337,0.138106 61.7338,0.138107 61.7337,0.138107 61.7337,0.138107 61.7338,0.138106 61.7337,0.138107 61.7337,0.138107 61.7338,0.138107 61.7337,0.138107 61.7338,0.138106 61.7337,0.138107 61.7337,0.138107 61.7338,0.138107 61.7337,0.138107 61.7337,0.138106 61.7338,0.138107 61.7337,0.138107 61.7337,0.138107 61.7338,0.138106 61.7337,0.138107 61.7338,0.138107 61.7337,0.138107 61.7337,0.138107 61.7338,0.138106 61.7337,0.138107 61.7338,0.138107 61.7337,0.138107 61.7337,0.138106 61.7338,0.138107 61.7337,0.138107"
               style="fill:none;stroke:#000000;stroke-width:25;stroke-linecap:butt;stroke-linejoin:miter;stroke-miterlimit:4;stroke-dasharray:none;stroke-opacity:1" />
            <path
               style="fill:none;stroke:#000000;stroke-width:0.8999998;stroke-linecap:butt;stroke-linejoin:miter;stroke-miterlimit:4;stroke-dasharray:none;stroke-opacity:1"
               d="m 1153.4679,71.083513 61.7337,-141.861893 61.7338,142.138107 61.7337,-141.861894 61.9961,142.374197 61.4714,-142.097983 61.7337,142.138107 61.7338,-141.861894 62.0099,142.178884 61.4575,-141.90267 61.7338,142.138107 61.7337,-141.861893 61.7337,142.455096 61.7338,-141.626456 61.7337,141.58568 61.7338,-141.861893 61.5384,141.778731 61.929,-141.502518 61.7338,142.138107 61.7337,-141.861893 61.5385,141.974044 61.929,-141.697831 61.7337,142.138106 61.7338,-141.861892 61.7337,141.626455 61.7337,-141.350241 61.7338,142.138105 61.7337,-141.861892 61.1814,141.626455 62.2861,-141.350241 61.7337,142.138106 61.7338,-141.861893 61.7337,142.138107"
               id="path5545"
               inkscape:connector-curvature="0"
               sodipodi:nodetypes="ccccscccscccscccscccscccscccscccc" />
            <path
               style="fill:none;stroke:#000000;stroke-width:25;stroke-linecap:butt;stroke-linejoin:miter;stroke-miterlimit:4;stroke-dasharray:none;stroke-opacity:1"
               d="m 1153.4679,71.083513 c 41.1558,0.09207 82.3116,0.184143 123.4675,0.276214 41.1558,0.09207 82.3116,0.184142 123.4674,0.276214 41.1559,0.09207 82.3117,0.184142 123.4675,0.276213 41.1558,0.09207 82.3117,0.184143 123.4675,0.276214 l 123.4675,0.276213 c 41.1558,0.09207 82.3116,0.184142 123.4674,0.276214 41.1559,0.09207 82.3117,0.184142 123.4675,0.276213 41.1559,0.09207 82.3117,0.184142 123.4675,0.276213 41.1558,0.09207 82.3117,0.184142 123.4675,0.276214 l 123.4675,0.276213 123.4674,0.276213 c 41.1559,0.09207 82.3117,0.184143 123.4675,0.276214 l 123.4675,0.276213 c 41.1558,0.09207 82.3116,0.184143 123.4675,0.276214 41.1558,0.09207 82.3116,0.184143 123.4674,0.276214 41.1559,0.09207 82.3117,0.184143 123.4675,0.276214"
               id="path5547"
               inkscape:connector-curvature="0"
               sodipodi:nodetypes="csssssssssssssssc" />
          </g>
          <g
             id="g5791"
             transform="matrix(0,-0.34900006,0.48891038,0,608.08697,709.0626)">
            <path
               sodipodi:nodetypes="ccccccccccccccccccccccccccccccccc"
               inkscape:connector-curvature="0"
               id="path5779"
               d="m 1153.4679,-70.916487 61.7337,0.138107 61.7338,0.138107 61.7337,0.138106 61.7338,0.138107 61.7337,0.138107 61.7337,0.138107 61.7338,0.138106 61.7337,0.138107 61.7337,0.138107 61.7338,0.138107 61.7337,0.138107 61.7338,0.138106 61.7337,0.138107 61.7337,0.138107 61.7338,0.138107 61.7337,0.138107 61.7337,0.138106 61.7338,0.138107 61.7337,0.138107 61.7337,0.138107 61.7338,0.138106 61.7337,0.138107 61.7338,0.138107 61.7337,0.138107 61.7337,0.138107 61.7338,0.138106 61.7337,0.138107 61.7338,0.138107 61.7337,0.138107 61.7337,0.138106 61.7338,0.138107 61.7337,0.138107"
               style="fill:none;stroke:#000000;stroke-width:14.5;stroke-linecap:butt;stroke-linejoin:miter;stroke-miterlimit:4;stroke-dasharray:none;stroke-opacity:1" />
            <path
               style="fill:none;stroke:#000000;stroke-width:14.5;stroke-linecap:butt;stroke-linejoin:miter;stroke-miterlimit:4;stroke-dasharray:none;stroke-opacity:1"
               d="m 1153.4679,71.083513 61.7337,-141.861893 61.7338,142.138107 61.7337,-141.861894 61.9961,142.374197 61.4714,-142.097983 61.7337,142.138107 61.7338,-141.861894 62.0099,142.178884 61.4575,-141.90267 61.7338,142.138107 61.7337,-141.861893 61.7337,142.455096 61.7338,-141.626456 61.7337,141.58568 61.7338,-141.861893 61.5384,141.778731 61.929,-141.502518 61.7338,142.138107 61.7337,-141.861893 61.5385,141.974044 61.929,-141.697831 61.7337,142.138106 61.7338,-141.861892 61.7337,141.626455 61.7337,-141.350241 61.7338,142.138105 61.7337,-141.861892 61.1814,141.626455 62.2861,-141.350241 61.7337,142.138106 61.7338,-141.861893 61.7337,142.138107"
               id="path5781"
               inkscape:connector-curvature="0"
               sodipodi:nodetypes="ccccscccscccscccscccscccscccscccc" />
            <path
               style="fill:none;stroke:#000000;stroke-width:14.5;stroke-linecap:butt;stroke-linejoin:miter;stroke-miterlimit:4;stroke-dasharray:none;stroke-opacity:1"
               d="m 1153.4679,71.083513 c 41.1558,0.09207 82.3116,0.184143 123.4675,0.276214 41.1558,0.09207 82.3116,0.184142 123.4674,0.276214 41.1559,0.09207 82.3117,0.184142 123.4675,0.276213 41.1558,0.09207 82.3117,0.184143 123.4675,0.276214 l 123.4675,0.276213 c 41.1558,0.09207 82.3116,0.184142 123.4674,0.276214 41.1559,0.09207 82.3117,0.184142 123.4675,0.276213 41.1559,0.09207 82.3117,0.184142 123.4675,0.276213 41.1558,0.09207 82.3117,0.184142 123.4675,0.276214 l 123.4675,0.276213 123.4674,0.276213 c 41.1559,0.09207 82.3117,0.184143 123.4675,0.276214 l 123.4675,0.276213 c 41.1558,0.09207 82.3116,0.184143 123.4675,0.276214 41.1558,0.09207 82.3116,0.184143 123.4674,0.276214 41.1559,0.09207 82.3117,0.184143 123.4675,0.276214"
               id="path5783"
               inkscape:connector-curvature="0"
               sodipodi:nodetypes="csssssssssssssssc" />
            <path
               style="fill:none;stroke:#000000;stroke-width:25;stroke-linecap:butt;stroke-linejoin:miter;stroke-miterlimit:4;stroke-dasharray:none;stroke-opacity:1"
               d="m 1153.4679,-70.916487 61.7337,0.138107 61.7338,0.138107 61.7337,0.138106 61.7338,0.138107 61.7337,0.138107 61.7337,0.138107 61.7338,0.138106 61.7337,0.138107 61.7337,0.138107 61.7338,0.138107 61.7337,0.138107 61.7338,0.138106 61.7337,0.138107 61.7337,0.138107 61.7338,0.138107 61.7337,0.138107 61.7337,0.138106 61.7338,0.138107 61.7337,0.138107 61.7337,0.138107 61.7338,0.138106 61.7337,0.138107 61.7338,0.138107 61.7337,0.138107 61.7337,0.138107 61.7338,0.138106 61.7337,0.138107 61.7338,0.138107 61.7337,0.138107 61.7337,0.138106 61.7338,0.138107 61.7337,0.138107"
               id="path5785"
               inkscape:connector-curvature="0"
               sodipodi:nodetypes="ccccccccccccccccccccccccccccccccc" />
            <path
               sodipodi:nodetypes="ccccscccscccscccscccscccscccscccc"
               inkscape:connector-curvature="0"
               id="path5787"
               d="m 1153.4679,71.083513 61.7337,-141.861893 61.7338,142.138107 61.7337,-141.861894 61.9961,142.374197 61.4714,-142.097983 61.7337,142.138107 61.7338,-141.861894 62.0099,142.178884 61.4575,-141.90267 61.7338,142.138107 61.7337,-141.861893 61.7337,142.455096 61.7338,-141.626456 61.7337,141.58568 61.7338,-141.861893 61.5384,141.778731 61.929,-141.502518 61.7338,142.138107 61.7337,-141.861893 61.5385,141.974044 61.929,-141.697831 61.7337,142.138106 61.7338,-141.861892 61.7337,141.626455 61.7337,-141.350241 61.7338,142.138105 61.7337,-141.861892 61.1814,141.626455 62.2861,-141.350241 61.7337,142.138106 61.7338,-141.861893 61.7337,142.138107"
               style="fill:none;stroke:#000000;stroke-width:0.8999998;stroke-linecap:butt;stroke-linejoin:miter;stroke-miterlimit:4;stroke-dasharray:none;stroke-opacity:1" />
            <path
               sodipodi:nodetypes="csssssssssssssssc"
               inkscape:connector-curvature="0"
               id="path5789"
               d="m 1153.4679,71.083513 c 41.1558,0.09207 82.3116,0.184143 123.4675,0.276214 41.1558,0.09207 82.3116,0.184142 123.4674,0.276214 41.1559,0.09207 82.3117,0.184142 123.4675,0.276213 41.1558,0.09207 82.3117,0.184143 123.4675,0.276214 l 123.4675,0.276213 c 41.1558,0.09207 82.3116,0.184142 123.4674,0.276214 41.1559,0.09207 82.3117,0.184142 123.4675,0.276213 41.1559,0.09207 82.3117,0.184142 123.4675,0.276213 41.1558,0.09207 82.3117,0.184142 123.4675,0.276214 l 123.4675,0.276213 123.4674,0.276213 c 41.1559,0.09207 82.3117,0.184143 123.4675,0.276214 l 123.4675,0.276213 c 41.1558,0.09207 82.3116,0.184143 123.4675,0.276214 41.1558,0.09207 82.3116,0.184143 123.4674,0.276214 41.1559,0.09207 82.3117,0.184143 123.4675,0.276214"
               style="fill:none;stroke:#000000;stroke-width:25;stroke-linecap:butt;stroke-linejoin:miter;stroke-miterlimit:4;stroke-dasharray:none;stroke-opacity:1" />
          </g>
          <g
             transform="matrix(0,-0.34900006,0.48891038,0,612.40837,-669.8224)"
             id="g5805">
            <path
               style="fill:none;stroke:#000000;stroke-width:14.5;stroke-linecap:butt;stroke-linejoin:miter;stroke-miterlimit:4;stroke-dasharray:none;stroke-opacity:1"
               d="m 1153.4679,-70.916487 61.7337,0.138107 61.7338,0.138107 61.7337,0.138106 61.7338,0.138107 61.7337,0.138107 61.7337,0.138107 61.7338,0.138106 61.7337,0.138107 61.7337,0.138107 61.7338,0.138107 61.7337,0.138107 61.7338,0.138106 61.7337,0.138107 61.7337,0.138107 61.7338,0.138107 61.7337,0.138107 61.7337,0.138106 61.7338,0.138107 61.7337,0.138107 61.7337,0.138107 61.7338,0.138106 61.7337,0.138107 61.7338,0.138107 61.7337,0.138107 61.7337,0.138107 61.7338,0.138106 61.7337,0.138107 61.7338,0.138107 61.7337,0.138107 61.7337,0.138106 61.7338,0.138107 61.7337,0.138107"
               id="path5793"
               inkscape:connector-curvature="0"
               sodipodi:nodetypes="ccccccccccccccccccccccccccccccccc" />
            <path
               sodipodi:nodetypes="ccccscccscccscccscccscccscccscccc"
               inkscape:connector-curvature="0"
               id="path5795"
               d="m 1153.4679,71.083513 61.7337,-141.861893 61.7338,142.138107 61.7337,-141.861894 61.9961,142.374197 61.4714,-142.097983 61.7337,142.138107 61.7338,-141.861894 62.0099,142.178884 61.4575,-141.90267 61.7338,142.138107 61.7337,-141.861893 61.7337,142.455096 61.7338,-141.626456 61.7337,141.58568 61.7338,-141.861893 61.5384,141.778731 61.929,-141.502518 61.7338,142.138107 61.7337,-141.861893 61.5385,141.974044 61.929,-141.697831 61.7337,142.138106 61.7338,-141.861892 61.7337,141.626455 61.7337,-141.350241 61.7338,142.138105 61.7337,-141.861892 61.1814,141.626455 62.2861,-141.350241 61.7337,142.138106 61.7338,-141.861893 61.7337,142.138107"
               style="fill:none;stroke:#000000;stroke-width:14.5;stroke-linecap:butt;stroke-linejoin:miter;stroke-miterlimit:4;stroke-dasharray:none;stroke-opacity:1" />
            <path
               sodipodi:nodetypes="csssssssssssssssc"
               inkscape:connector-curvature="0"
               id="path5797"
               d="m 1153.4679,71.083513 c 41.1558,0.09207 82.3116,0.184143 123.4675,0.276214 41.1558,0.09207 82.3116,0.184142 123.4674,0.276214 41.1559,0.09207 82.3117,0.184142 123.4675,0.276213 41.1558,0.09207 82.3117,0.184143 123.4675,0.276214 l 123.4675,0.276213 c 41.1558,0.09207 82.3116,0.184142 123.4674,0.276214 41.1559,0.09207 82.3117,0.184142 123.4675,0.276213 41.1559,0.09207 82.3117,0.184142 123.4675,0.276213 41.1558,0.09207 82.3117,0.184142 123.4675,0.276214 l 123.4675,0.276213 123.4674,0.276213 c 41.1559,0.09207 82.3117,0.184143 123.4675,0.276214 l 123.4675,0.276213 c 41.1558,0.09207 82.3116,0.184143 123.4675,0.276214 41.1558,0.09207 82.3116,0.184143 123.4674,0.276214 41.1559,0.09207 82.3117,0.184143 123.4675,0.276214"
               style="fill:none;stroke:#000000;stroke-width:14.5;stroke-linecap:butt;stroke-linejoin:miter;stroke-miterlimit:4;stroke-dasharray:none;stroke-opacity:1" />
            <path
               sodipodi:nodetypes="ccccccccccccccccccccccccccccccccc"
               inkscape:connector-curvature="0"
               id="path5799"
               d="m 1153.4679,-70.916487 61.7337,0.138107 61.7338,0.138107 61.7337,0.138106 61.7338,0.138107 61.7337,0.138107 61.7337,0.138107 61.7338,0.138106 61.7337,0.138107 61.7337,0.138107 61.7338,0.138107 61.7337,0.138107 61.7338,0.138106 61.7337,0.138107 61.7337,0.138107 61.7338,0.138107 61.7337,0.138107 61.7337,0.138106 61.7338,0.138107 61.7337,0.138107 61.7337,0.138107 61.7338,0.138106 61.7337,0.138107 61.7338,0.138107 61.7337,0.138107 61.7337,0.138107 61.7338,0.138106 61.7337,0.138107 61.7338,0.138107 61.7337,0.138107 61.7337,0.138106 61.7338,0.138107 61.7337,0.138107"
               style="fill:none;stroke:#000000;stroke-width:25;stroke-linecap:butt;stroke-linejoin:miter;stroke-miterlimit:4;stroke-dasharray:none;stroke-opacity:1" />
            <path
               style="fill:none;stroke:#000000;stroke-width:0.8999998;stroke-linecap:butt;stroke-linejoin:miter;stroke-miterlimit:4;stroke-dasharray:none;stroke-opacity:1"
               d="m 1153.4679,71.083513 61.7337,-141.861893 61.7338,142.138107 61.7337,-141.861894 61.9961,142.374197 61.4714,-142.097983 61.7337,142.138107 61.7338,-141.861894 62.0099,142.178884 61.4575,-141.90267 61.7338,142.138107 61.7337,-141.861893 61.7337,142.455096 61.7338,-141.626456 61.7337,141.58568 61.7338,-141.861893 61.5384,141.778731 61.929,-141.502518 61.7338,142.138107 61.7337,-141.861893 61.5385,141.974044 61.929,-141.697831 61.7337,142.138106 61.7338,-141.861892 61.7337,141.626455 61.7337,-141.350241 61.7338,142.138105 61.7337,-141.861892 61.1814,141.626455 62.2861,-141.350241 61.7337,142.138106 61.7338,-141.861893 61.7337,142.138107"
               id="path5801"
               inkscape:connector-curvature="0"
               sodipodi:nodetypes="ccccscccscccscccscccscccscccscccc" />
            <path
               style="fill:none;stroke:#000000;stroke-width:25;stroke-linecap:butt;stroke-linejoin:miter;stroke-miterlimit:4;stroke-dasharray:none;stroke-opacity:1"
               d="m 1153.4679,71.083513 c 41.1558,0.09207 82.3116,0.184143 123.4675,0.276214 41.1558,0.09207 82.3116,0.184142 123.4674,0.276214 41.1559,0.09207 82.3117,0.184142 123.4675,0.276213 41.1558,0.09207 82.3117,0.184143 123.4675,0.276214 l 123.4675,0.276213 c 41.1558,0.09207 82.3116,0.184142 123.4674,0.276214 41.1559,0.09207 82.3117,0.184142 123.4675,0.276213 41.1559,0.09207 82.3117,0.184142 123.4675,0.276213 41.1558,0.09207 82.3117,0.184142 123.4675,0.276214 l 123.4675,0.276213 123.4674,0.276213 c 41.1559,0.09207 82.3117,0.184143 123.4675,0.276214 l 123.4675,0.276213 c 41.1558,0.09207 82.3116,0.184143 123.4675,0.276214 41.1558,0.09207 82.3116,0.184143 123.4674,0.276214 41.1559,0.09207 82.3117,0.184143 123.4675,0.276214"
               id="path5803"
               inkscape:connector-curvature="0"
               sodipodi:nodetypes="csssssssssssssssc" />
          </g>
          <g
             id="g5819"
             transform="matrix(0,-0.34900006,0.48891038,0,610.24767,19.620101)">
            <path
               sodipodi:nodetypes="ccccccccccccccccccccccccccccccccc"
               inkscape:connector-curvature="0"
               id="path5807"
               d="m 1153.4679,-70.916487 61.7337,0.138107 61.7338,0.138107 61.7337,0.138106 61.7338,0.138107 61.7337,0.138107 61.7337,0.138107 61.7338,0.138106 61.7337,0.138107 61.7337,0.138107 61.7338,0.138107 61.7337,0.138107 61.7338,0.138106 61.7337,0.138107 61.7337,0.138107 61.7338,0.138107 61.7337,0.138107 61.7337,0.138106 61.7338,0.138107 61.7337,0.138107 61.7337,0.138107 61.7338,0.138106 61.7337,0.138107 61.7338,0.138107 61.7337,0.138107 61.7337,0.138107 61.7338,0.138106 61.7337,0.138107 61.7338,0.138107 61.7337,0.138107 61.7337,0.138106 61.7338,0.138107 61.7337,0.138107"
               style="fill:none;stroke:#000000;stroke-width:14.5;stroke-linecap:butt;stroke-linejoin:miter;stroke-miterlimit:4;stroke-dasharray:none;stroke-opacity:1" />
            <path
               style="fill:none;stroke:#000000;stroke-width:14.5;stroke-linecap:butt;stroke-linejoin:miter;stroke-miterlimit:4;stroke-dasharray:none;stroke-opacity:1"
               d="m 1153.4679,71.083513 61.7337,-141.861893 61.7338,142.138107 61.7337,-141.861894 61.9961,142.374197 61.4714,-142.097983 61.7337,142.138107 61.7338,-141.861894 62.0099,142.178884 61.4575,-141.90267 61.7338,142.138107 61.7337,-141.861893 61.7337,142.455096 61.7338,-141.626456 61.7337,141.58568 61.7338,-141.861893 61.5384,141.778731 61.929,-141.502518 61.7338,142.138107 61.7337,-141.861893 61.5385,141.974044 61.929,-141.697831 61.7337,142.138106 61.7338,-141.861892 61.7337,141.626455 61.7337,-141.350241 61.7338,142.138105 61.7337,-141.861892 61.1814,141.626455 62.2861,-141.350241 61.7337,142.138106 61.7338,-141.861893 61.7337,142.138107"
               id="path5809"
               inkscape:connector-curvature="0"
               sodipodi:nodetypes="ccccscccscccscccscccscccscccscccc" />
            <path
               style="fill:none;stroke:#000000;stroke-width:14.5;stroke-linecap:butt;stroke-linejoin:miter;stroke-miterlimit:4;stroke-dasharray:none;stroke-opacity:1"
               d="m 1153.4679,71.083513 c 41.1558,0.09207 82.3116,0.184143 123.4675,0.276214 41.1558,0.09207 82.3116,0.184142 123.4674,0.276214 41.1559,0.09207 82.3117,0.184142 123.4675,0.276213 41.1558,0.09207 82.3117,0.184143 123.4675,0.276214 l 123.4675,0.276213 c 41.1558,0.09207 82.3116,0.184142 123.4674,0.276214 41.1559,0.09207 82.3117,0.184142 123.4675,0.276213 41.1559,0.09207 82.3117,0.184142 123.4675,0.276213 41.1558,0.09207 82.3117,0.184142 123.4675,0.276214 l 123.4675,0.276213 123.4674,0.276213 c 41.1559,0.09207 82.3117,0.184143 123.4675,0.276214 l 123.4675,0.276213 c 41.1558,0.09207 82.3116,0.184143 123.4675,0.276214 41.1558,0.09207 82.3116,0.184143 123.4674,0.276214 41.1559,0.09207 82.3117,0.184143 123.4675,0.276214"
               id="path5811"
               inkscape:connector-curvature="0"
               sodipodi:nodetypes="csssssssssssssssc" />
            <path
               style="fill:none;stroke:#000000;stroke-width:25;stroke-linecap:butt;stroke-linejoin:miter;stroke-miterlimit:4;stroke-dasharray:none;stroke-opacity:1"
               d="m 1153.4679,-70.916487 61.7337,0.138107 61.7338,0.138107 61.7337,0.138106 61.7338,0.138107 61.7337,0.138107 61.7337,0.138107 61.7338,0.138106 61.7337,0.138107 61.7337,0.138107 61.7338,0.138107 61.7337,0.138107 61.7338,0.138106 61.7337,0.138107 61.7337,0.138107 61.7338,0.138107 61.7337,0.138107 61.7337,0.138106 61.7338,0.138107 61.7337,0.138107 61.7337,0.138107 61.7338,0.138106 61.7337,0.138107 61.7338,0.138107 61.7337,0.138107 61.7337,0.138107 61.7338,0.138106 61.7337,0.138107 61.7338,0.138107 61.7337,0.138107 61.7337,0.138106 61.7338,0.138107 61.7337,0.138107"
               id="path5813"
               inkscape:connector-curvature="0"
               sodipodi:nodetypes="ccccccccccccccccccccccccccccccccc" />
            <path
               sodipodi:nodetypes="ccccscccscccscccscccscccscccscccc"
               inkscape:connector-curvature="0"
               id="path5815"
               d="m 1153.4679,71.083513 61.7337,-141.861893 61.7338,142.138107 61.7337,-141.861894 61.9961,142.374197 61.4714,-142.097983 61.7337,142.138107 61.7338,-141.861894 62.0099,142.178884 61.4575,-141.90267 61.7338,142.138107 61.7337,-141.861893 61.7337,142.455096 61.7338,-141.626456 61.7337,141.58568 61.7338,-141.861893 61.5384,141.778731 61.929,-141.502518 61.7338,142.138107 61.7337,-141.861893 61.5385,141.974044 61.929,-141.697831 61.7337,142.138106 61.7338,-141.861892 61.7337,141.626455 61.7337,-141.350241 61.7338,142.138105 61.7337,-141.861892 61.1814,141.626455 62.2861,-141.350241 61.7337,142.138106 61.7338,-141.861893 61.7337,142.138107"
               style="fill:none;stroke:#000000;stroke-width:0.8999998;stroke-linecap:butt;stroke-linejoin:miter;stroke-miterlimit:4;stroke-dasharray:none;stroke-opacity:1" />
            <path
               sodipodi:nodetypes="csssssssssssssssc"
               inkscape:connector-curvature="0"
               id="path5817"
               d="m 1153.4679,71.083513 c 41.1558,0.09207 82.3116,0.184143 123.4675,0.276214 41.1558,0.09207 82.3116,0.184142 123.4674,0.276214 41.1559,0.09207 82.3117,0.184142 123.4675,0.276213 41.1558,0.09207 82.3117,0.184143 123.4675,0.276214 l 123.4675,0.276213 c 41.1558,0.09207 82.3116,0.184142 123.4674,0.276214 41.1559,0.09207 82.3117,0.184142 123.4675,0.276213 41.1559,0.09207 82.3117,0.184142 123.4675,0.276213 41.1558,0.09207 82.3117,0.184142 123.4675,0.276214 l 123.4675,0.276213 123.4674,0.276213 c 41.1559,0.09207 82.3117,0.184143 123.4675,0.276214 l 123.4675,0.276213 c 41.1558,0.09207 82.3116,0.184143 123.4675,0.276214 41.1558,0.09207 82.3116,0.184143 123.4674,0.276214 41.1559,0.09207 82.3117,0.184143 123.4675,0.276214"
               style="fill:none;stroke:#000000;stroke-width:25;stroke-linecap:butt;stroke-linejoin:miter;stroke-miterlimit:4;stroke-dasharray:none;stroke-opacity:1" />
          </g>
          <g
             transform="matrix(0,-0.34900006,0.48891038,0,614.56907,-1359.2649)"
             id="g5833">
            <path
               style="fill:none;stroke:#000000;stroke-width:14.5;stroke-linecap:butt;stroke-linejoin:miter;stroke-miterlimit:4;stroke-dasharray:none;stroke-opacity:1"
               d="m 1153.4679,-70.916487 61.7337,0.138107 61.7338,0.138107 61.7337,0.138106 61.7338,0.138107 61.7337,0.138107 61.7337,0.138107 61.7338,0.138106 61.7337,0.138107 61.7337,0.138107 61.7338,0.138107 61.7337,0.138107 61.7338,0.138106 61.7337,0.138107 61.7337,0.138107 61.7338,0.138107 61.7337,0.138107"
               id="path5821"
               inkscape:connector-curvature="0"
               sodipodi:nodetypes="ccccccccccccccccc" />
            <path
               sodipodi:nodetypes="ccccscccscccscccc"
               inkscape:connector-curvature="0"
               id="path5823"
               d="m 1153.4679,71.083513 61.7337,-141.861893 61.7338,142.138107 61.7337,-141.861894 61.9961,142.374197 61.4714,-142.097983 61.7337,142.138107 61.7338,-141.861894 62.0099,142.178884 61.4575,-141.90267 61.7338,142.138107 61.7337,-141.861893 61.7337,142.455096 61.7338,-141.626456 61.7337,141.58568 61.7338,-141.861893 61.5384,141.778731"
               style="fill:none;stroke:#000000;stroke-width:14.5;stroke-linecap:butt;stroke-linejoin:miter;stroke-miterlimit:4;stroke-dasharray:none;stroke-opacity:1" />
            <path
               sodipodi:nodetypes="csssssssc"
               inkscape:connector-curvature="0"
               id="path5825"
               d="m 1153.4679,71.083513 c 41.1558,0.09207 82.3116,0.184143 123.4675,0.276214 41.1558,0.09207 82.3116,0.184142 123.4674,0.276214 41.1559,0.09207 82.3117,0.184142 123.4675,0.276213 41.1558,0.09207 82.3117,0.184143 123.4675,0.276214 l 123.4675,0.276213 c 41.1558,0.09207 82.3116,0.184142 123.4674,0.276214 41.1559,0.09207 82.3117,0.184142 123.4675,0.276213 41.1559,0.09207 82.3117,0.184142 123.4675,0.276213"
               style="fill:none;stroke:#000000;stroke-width:14.5;stroke-linecap:butt;stroke-linejoin:miter;stroke-miterlimit:4;stroke-dasharray:none;stroke-opacity:1" />
            <path
               sodipodi:nodetypes="cccccccccccccccc"
               inkscape:connector-curvature="0"
               id="path5827"
               d="m 1153.4679,-70.916487 61.7337,0.138107 61.7338,0.138107 61.7337,0.138106 61.7338,0.138107 61.7337,0.138107 61.7337,0.138107 61.7338,0.138106 61.7337,0.138107 61.7337,0.138107 61.7338,0.138107 61.7337,0.138107 61.7338,0.138106 61.7337,0.138107 61.7337,0.138107 61.7338,0.138107"
               style="fill:none;stroke:#000000;stroke-width:25;stroke-linecap:butt;stroke-linejoin:miter;stroke-miterlimit:4;stroke-dasharray:none;stroke-opacity:1" />
            <path
               style="fill:none;stroke:#000000;stroke-width:0.8999998;stroke-linecap:butt;stroke-linejoin:miter;stroke-miterlimit:4;stroke-dasharray:none;stroke-opacity:1"
               d="m 1153.4679,71.083513 61.7337,-141.861893 61.7338,142.138107 61.7337,-141.861894 61.9961,142.374197 61.4714,-142.097983 61.7337,142.138107 61.7338,-141.861894 62.0099,142.178884 61.4575,-141.90267 61.7338,142.138107 61.7337,-141.861893 61.7337,142.455096 61.7338,-141.626456 61.7337,141.58568 61.7338,-141.861893 61.5384,141.778731"
               id="path5829"
               inkscape:connector-curvature="0"
               sodipodi:nodetypes="ccccscccscccscccc" />
            <path
               style="fill:none;stroke:#000000;stroke-width:25;stroke-linecap:butt;stroke-linejoin:miter;stroke-miterlimit:4;stroke-dasharray:none;stroke-opacity:1"
               d="m 1153.4679,71.083513 c 41.1558,0.09207 82.3116,0.184143 123.4675,0.276214 41.1558,0.09207 82.3116,0.184142 123.4674,0.276214 41.1559,0.09207 82.3117,0.184142 123.4675,0.276213 41.1558,0.09207 82.3117,0.184143 123.4675,0.276214 l 123.4675,0.276213 c 41.1558,0.09207 82.3116,0.184142 123.4674,0.276214 41.1559,0.09207 82.3117,0.184142 123.4675,0.276213 41.1559,0.09207 82.3117,0.184142 123.4675,0.276213"
               id="path5831"
               inkscape:connector-curvature="0"
               sodipodi:nodetypes="csssssssc" />
          </g>
          <path
             style="fill:#000000;stroke:#000000;stroke-width:6.42739868;stroke-miterlimit:4;stroke-dasharray:none;stroke-opacity:1"
             d="m 648.78567,-1862.6217 c 0.69661,0.916 0.91237,2.1125 1.09698,6.0827 0.12732,2.7183 0.3524,4.9424 0.502,4.9424 0.15005,0 8.99094,-5.3542 19.64747,-11.8985 15.60626,-9.5837 19.45059,-12.1122 19.76161,-12.9967 0.31829,-0.9055 0.63022,-1.1008 1.77563,-1.1115 0.85212,0 2.11053,-0.468 3.25548,-1.1899 1.57215,-0.9911 2.25217,-1.1767 4.31222,-1.1767 2.10166,0 2.58411,-0.1373 3.42873,-0.9814 l 0.98285,-0.9814 1.07175,0.9814 1.07174,0.9814 h 21.52679 c 21.02887,0 21.54019,-0.02 22.1013,-0.7323 0.73663,-0.9388 2.0214,-0.9388 2.65254,0 0.41424,0.6162 0.96284,0.7323 3.4651,0.7323 h 2.97311 v 4.3373 c 0,3.8179 0.1114,4.4387 0.92351,5.1851 0.84326,0.7739 0.86326,0.921 0.22985,1.6905 -0.96557,1.1734 -0.88645,1.5123 0.68593,2.9381 0.75891,0.6881 1.37959,1.6293 1.37959,2.0917 0,0.647 1.57965,1.8301 6.86199,5.1398 3.77385,2.3646 6.95249,4.493 7.06366,4.7298 0.11141,0.2368 -0.90168,2.3696 -2.24989,4.7395 -1.84566,3.2434 -2.38585,4.5717 -2.18487,5.3714 0.2801,1.1145 -1.46712,4.6868 -2.91559,5.9609 -1.03605,0.9114 -4.00689,0.8648 -5.19549,-0.081 -1.25568,-0.9996 -1.16747,-2.6525 0.28692,-5.3807 0.89145,-1.6719 1.52691,-2.3573 2.41586,-2.6059 0.92738,-0.2592 1.55715,-0.9907 2.72666,-3.1669 0.83643,-1.5564 1.45711,-3.1352 1.37958,-3.5081 -0.0773,-0.3731 -2.5209,-2.168 -5.42967,-3.9885 -5.06567,-3.1705 -5.3851,-3.3096 -7.58771,-3.3058 -2.20283,0 -2.53568,0.1514 -7.9326,3.5025 -3.09838,1.924 -5.63338,3.7098 -5.63338,3.9682 0,0.9059 3.20478,5.982 3.91344,6.1984 0.99377,0.3037 3.44441,4.7912 3.44441,6.3072 0,1.7002 -1.3457,2.7117 -3.60765,2.7117 -2.16918,0 -2.78872,-0.5058 -4.63802,-3.7874 -1.50031,-2.662 -1.69742,-3.5269 -0.94147,-4.1285 0.31989,-0.2548 -0.19325,-1.5655 -1.60967,-4.108 -1.14359,-2.0535 -2.07187,-4.0187 -2.06278,-4.367 0.0227,-0.3717 2.52659,-2.174 6.09331,-4.3637 7.70867,-4.7327 8.14587,-5.0668 8.14587,-6.2257 0,-0.5267 0.53564,-1.517 1.1902,-2.2002 1.13131,-1.1807 1.23044,-2.3049 0.20462,-2.3049 -0.72094,0 -0.56612,-1.3141 0.21598,-1.8305 0.49904,-0.3297 0.68979,-1.2025 0.68979,-3.1567 0,-2.6371 -0.0273,-2.7011 -1.14973,-2.7011 -0.63227,0 -1.14972,0.1474 -1.14972,0.3271 0,0.6301 -1.52009,0.7835 -2.28696,0.2309 -1.16564,-0.8397 -43.65059,-0.8403 -45.26026,-6e-4 -0.95693,0.4991 -1.12949,0.4991 -1.64968,0 -0.9683,-0.9289 -4.29585,-0.7189 -5.92712,0.3739 -0.76459,0.5122 -1.50531,1.2197 -1.64558,1.572 -0.14096,0.3523 -0.89601,0.7981 -1.67901,0.9907 -0.78278,0.1918 -3.98233,1.9152 -7.10982,3.8281 -5.01361,3.0666 -5.79593,3.6945 -6.61509,5.3086 -2.56205,5.0496 -2.52363,4.5899 -2.66549,31.9517 -0.10913,21.2164 -0.025,25.5248 0.51495,26.3598 0.49836,0.7699 2.58524,7.7401 2.58524,8.6349 0,0.095 2.67823,1.835 5.95145,3.8653 4.02939,2.499 6.33476,3.6914 7.13778,3.6914 0.85576,0 1.33729,0.2804 1.72902,1.0069 0.9342,1.7328 2.63935,2.6264 5.03976,2.6409 1.75767,0.02 2.20692,-0.1211 2.44542,-0.7189 0.16142,-0.4028 0.58111,-0.7323 0.93442,-0.7323 0.35331,0 0.86417,0.3295 1.13495,0.7323 0.48154,0.7165 0.96285,0.7321 22.53351,0.7321 21.57043,0 22.05151,-0.02 22.53328,-0.7321 0.27077,-0.4028 0.78141,-0.7323 1.13472,-0.7323 0.35353,0 0.77414,0.3295 0.93465,0.7323 0.18643,0.4678 0.69593,0.7321 1.4105,0.7321 1.08426,0 1.11881,-0.083 1.11881,-2.7066 0,-2.0683 -0.16369,-2.7563 -0.68979,-2.9172 -0.37945,-0.1151 -0.68979,-0.5278 -0.68979,-0.9154 0,-0.3875 0.31034,-0.7993 0.68979,-0.9152 1.01855,-0.3111 0.84053,-1.3931 -0.45994,-2.7965 -0.63227,-0.6824 -1.14972,-1.6187 -1.14972,-2.0811 0,-0.6467 -1.63854,-1.8748 -7.10982,-5.329 -3.91071,-2.4686 -7.2103,-4.6844 -7.33284,-4.9238 -0.12278,-0.2397 0.81438,-2.2798 2.08188,-4.534 1.63149,-2.9014 2.16145,-4.2123 1.81428,-4.4887 -0.26964,-0.2146 -0.49017,-0.6663 -0.49017,-1.0036 0,-1.1018 3.14589,-6.1392 4.0835,-6.5388 2.57456,-1.0971 5.57381,0.2308 5.57381,2.468 0,1.7496 -2.68028,6.265 -3.85911,6.5016 -0.68683,0.1373 -1.42096,1.0343 -2.51658,3.0726 -0.85076,1.5829 -1.47143,3.0446 -1.37958,3.2483 0.0932,0.2037 2.7187,1.9485 5.83731,3.8774 7.63205,4.7211 7.32353,4.7256 15.25409,-0.2235 3.28799,-2.0516 5.97804,-3.8481 5.97804,-3.9918 0,-0.829 -3.91162,-6.5651 -4.59459,-6.7377 -1.02492,-0.259 -3.22297,-4.2275 -3.22297,-5.819 0,-2.1801 3.03904,-3.4758 5.59631,-2.3862 1.44939,0.6176 3.73861,4.9416 3.39303,6.4088 -0.22508,0.9543 0.19326,2.0496 2.04096,5.3338 1.27818,2.2731 2.23512,4.3173 2.12644,4.5427 -0.10913,0.2253 -2.9174,2.1033 -6.242,4.1731 -7.38082,4.5949 -7.37445,4.5899 -7.3765,5.8027 0,0.8772 -0.59294,1.8172 -2.39654,3.8093 -0.46562,0.5143 -0.43174,0.8211 0.18189,1.6483 0.7107,0.9578 0.70229,1.0672 -0.14778,1.9035 -0.77278,0.7597 -0.89532,1.4179 -0.85099,4.5755 0.0296,2.0287 0.0409,3.8944 0.025,4.1459 -0.0227,0.316 -0.93556,0.4577 -2.96038,0.4577 -2.04596,0 -3.10588,0.1656 -3.50534,0.5492 -0.73344,0.7036 -2.02572,0.7036 -2.7594,0 -0.8628,-0.8278 -43.2841,-0.8278 -44.14713,0 -0.71753,0.6882 -1.80656,0.6842 -2.96197,-0.02 -0.51746,-0.3117 -1.89136,-0.5377 -3.26935,-0.5377 -2.02254,0 -2.67732,-0.1897 -4.39566,-1.2778 -1.11062,-0.7027 -2.48998,-1.2794 -3.06519,-1.2814 -0.6816,0 -1.19383,-0.3127 -1.46984,-0.8909 -0.25782,-0.5397 -8.02923,-5.598 -19.82731,-12.9054 -10.67199,-6.6096 -19.5297,-12.0178 -19.68408,-12.0178 -0.1546,0 -0.38377,8.1552 -0.50995,18.1225 l -0.23008,18.1223 v 0 m 23.74713,-29.189 c 0.30988,-0.8559 0.83552,-1.8811 1.16814,-2.2782 0.48495,-0.5789 0.60476,-5.604 0.60476,-25.3395 0,-24.0119 -0.0227,-24.6649 -0.95011,-26.553 -0.52269,-1.0646 -1.19634,-2.1364 -1.49713,-2.3821 -0.42697,-0.3487 -2.71074,0.8806 -10.43122,5.6151 -5.43672,3.3339 -10.45396,6.4602 -11.14944,6.9478 l -1.26477,0.8861 v 15.2822 c 0,8.4053 0.17961,15.4995 0.3915,15.7648 0.57271,0.7191 21.35491,13.55 22.0015,13.5837 0.30602,0.02 0.80983,-0.6713 1.11972,-1.5269 z"
             id="path5907"
             inkscape:connector-curvature="0"
             sodipodi:nodetypes="ccsccccsccccsccscscccscccccccccccccscsscccccscscsssccccccccccscscccscscscsscsccsccccscscccccscscccccccccccsccccsccccscccccscccccscccc" />
          <path
             inkscape:connector-curvature="0"
             id="path5915"
             d="m 485.375,1003.5 h 237.5 v 0"
             style="fill:none;stroke:#000000;stroke-width:15;stroke-linecap:butt;stroke-linejoin:miter;stroke-miterlimit:4;stroke-dasharray:none;stroke-opacity:1" />
          <path
             inkscape:connector-curvature="0"
             id="path6472"
             d="M 580.91009,-2085.0015 Z"
             style="fill:none;stroke:#000000;stroke-width:1px;stroke-linecap:butt;stroke-linejoin:miter;stroke-opacity:1" />
          <text
             xml:space="preserve"
             style="font-style:normal;font-weight:normal;font-size:40px;line-height:1.25;font-family:sans-serif;letter-spacing:0px;word-spacing:0px;fill:#000000;fill-opacity:1;stroke:none"
             x="187.97281"
             y="-1797.9341"
             id="text5999"><tspan
               sodipodi:role="line"
               id="tspan5997"
               x="187.97281"
               y="-1797.9341"
               style="font-style:normal;font-variant:normal;font-weight:bold;font-stretch:normal;font-size:106.66667175px;font-family:Roboto;-inkscape-font-specification:'Roboto Bold'">  33 m</tspan></text>
          <rect
             style="fill:#000000;fill-opacity:0;stroke:#000000;stroke-width:15.75921917;stroke-miterlimit:4;stroke-dasharray:none;stroke-dashoffset:0;stroke-opacity:1"
             id="rect6895"
             width="92.23436"
             height="8.8077106"
             x="568.72906"
             y="-2101.3916"
             ry="2.680608" />
          <path
             sodipodi:nodetypes="ccsccccsccccsccscscccscccccccccccccscsscccccscscsssccccccccccscscccscscscsscsccsccccscscccccscscccccccccccsccccsccccscccccscccccscccc"
             inkscape:connector-curvature="0"
             id="path111"
             d="m 647.7777,-1181.0067 c 0.69661,0.916 0.91237,2.1125 1.09698,6.0827 0.12732,2.7183 0.3524,4.9424 0.502,4.9424 0.15005,0 8.99094,-5.3542 19.64747,-11.8985 15.60626,-9.5837 19.45059,-12.1122 19.76161,-12.9967 0.31829,-0.9055 0.63022,-1.1008 1.77563,-1.1115 0.85212,0 2.11053,-0.468 3.25548,-1.1899 1.57215,-0.9911 2.25217,-1.1767 4.31222,-1.1767 2.10166,0 2.58411,-0.1373 3.42873,-0.9814 l 0.98285,-0.9814 1.07175,0.9814 1.07174,0.9814 h 21.52679 c 21.02887,0 21.54019,-0.02 22.1013,-0.7323 0.73663,-0.9388 2.0214,-0.9388 2.65254,0 0.41424,0.6162 0.96284,0.7323 3.4651,0.7323 h 2.97311 v 4.3373 c 0,3.8179 0.1114,4.4387 0.92351,5.1851 0.84326,0.7739 0.86326,0.921 0.22985,1.6905 -0.96557,1.1734 -0.88645,1.5123 0.68593,2.9381 0.75891,0.6881 1.37959,1.6293 1.37959,2.0917 0,0.647 1.57965,1.8301 6.86199,5.1398 3.77385,2.3646 6.95249,4.493 7.06366,4.7298 0.11141,0.2368 -0.90168,2.3696 -2.24989,4.7395 -1.84566,3.2434 -2.38585,4.5717 -2.18487,5.3714 0.2801,1.1145 -1.46712,4.6868 -2.91559,5.9609 -1.03605,0.9114 -4.00689,0.8648 -5.19549,-0.081 -1.25568,-0.9996 -1.16747,-2.6525 0.28692,-5.3807 0.89145,-1.6719 1.52691,-2.3573 2.41586,-2.6059 0.92738,-0.2592 1.55715,-0.9907 2.72666,-3.1669 0.83643,-1.5564 1.45711,-3.1352 1.37958,-3.5081 -0.0773,-0.3731 -2.5209,-2.168 -5.42967,-3.9885 -5.06567,-3.1705 -5.3851,-3.3096 -7.58771,-3.3058 -2.20283,0 -2.53568,0.1514 -7.9326,3.5025 -3.09838,1.924 -5.63338,3.7098 -5.63338,3.9682 0,0.9059 3.20478,5.982 3.91344,6.1984 0.99377,0.3037 3.44441,4.7912 3.44441,6.3072 0,1.7002 -1.3457,2.7117 -3.60765,2.7117 -2.16918,0 -2.78872,-0.5058 -4.63802,-3.7874 -1.50031,-2.662 -1.69742,-3.5269 -0.94147,-4.1285 0.31989,-0.2548 -0.19325,-1.5655 -1.60967,-4.108 -1.14359,-2.0535 -2.07187,-4.0187 -2.06278,-4.367 0.0227,-0.3717 2.52659,-2.174 6.09331,-4.3637 7.70867,-4.7327 8.14587,-5.0668 8.14587,-6.2257 0,-0.5267 0.53564,-1.517 1.1902,-2.2002 1.13131,-1.1807 1.23044,-2.3049 0.20462,-2.3049 -0.72094,0 -0.56612,-1.3141 0.21598,-1.8305 0.49904,-0.3297 0.68979,-1.2025 0.68979,-3.1567 0,-2.6371 -0.0273,-2.7011 -1.14973,-2.7011 -0.63227,0 -1.14972,0.1474 -1.14972,0.3271 0,0.6301 -1.52009,0.7835 -2.28696,0.2309 -1.16564,-0.8397 -43.65059,-0.8403 -45.26026,-6e-4 -0.95693,0.4991 -1.12949,0.4991 -1.64968,0 -0.9683,-0.9289 -4.29585,-0.7189 -5.92712,0.3739 -0.76459,0.5122 -1.50531,1.2197 -1.64558,1.572 -0.14096,0.3523 -0.89601,0.7981 -1.67901,0.9907 -0.78278,0.1918 -3.98233,1.9152 -7.10982,3.8281 -5.01361,3.0666 -5.79593,3.6945 -6.61509,5.3086 -2.56205,5.0496 -2.52363,4.5899 -2.66549,31.9517 -0.10913,21.2164 -0.025,25.5248 0.51495,26.3598 0.49836,0.7699 2.58524,7.7401 2.58524,8.6349 0,0.095 2.67823,1.835 5.95145,3.8653 4.02939,2.499 6.33476,3.6914 7.13778,3.6914 0.85576,0 1.33729,0.2804 1.72902,1.0069 0.9342,1.7328 2.63935,2.6264 5.03976,2.6409 1.75767,0.02 2.20692,-0.1211 2.44542,-0.7189 0.16142,-0.4028 0.58111,-0.7323 0.93442,-0.7323 0.35331,0 0.86417,0.3295 1.13495,0.7323 0.48154,0.7165 0.96285,0.7321 22.53351,0.7321 21.57043,0 22.05151,-0.02 22.53328,-0.7321 0.27077,-0.4028 0.78141,-0.7323 1.13472,-0.7323 0.35353,0 0.77414,0.3295 0.93465,0.7323 0.18643,0.4678 0.69593,0.7321 1.4105,0.7321 1.08426,0 1.11881,-0.083 1.11881,-2.7066 0,-2.0683 -0.16369,-2.7563 -0.68979,-2.9172 -0.37945,-0.1151 -0.68979,-0.5278 -0.68979,-0.9154 0,-0.3875 0.31034,-0.7993 0.68979,-0.9152 1.01855,-0.3111 0.84053,-1.3931 -0.45994,-2.7965 -0.63227,-0.6824 -1.14972,-1.6187 -1.14972,-2.0811 0,-0.6467 -1.63854,-1.8748 -7.10982,-5.329 -3.91071,-2.4686 -7.2103,-4.6844 -7.33284,-4.9238 -0.12278,-0.2397 0.81438,-2.2798 2.08188,-4.534 1.63149,-2.9014 2.16145,-4.2123 1.81428,-4.4887 -0.26964,-0.2146 -0.49017,-0.6663 -0.49017,-1.0036 0,-1.1018 3.14589,-6.1392 4.0835,-6.5388 2.57456,-1.0971 5.57381,0.2308 5.57381,2.468 0,1.7496 -2.68028,6.265 -3.85911,6.5016 -0.68683,0.1373 -1.42096,1.0343 -2.51658,3.0726 -0.85076,1.5829 -1.47143,3.0446 -1.37958,3.2483 0.0932,0.2037 2.7187,1.9485 5.83731,3.8774 7.63205,4.7211 7.32353,4.7256 15.25409,-0.2235 3.28799,-2.0516 5.97804,-3.8481 5.97804,-3.9918 0,-0.829 -3.91162,-6.5651 -4.59459,-6.7377 -1.02492,-0.259 -3.22297,-4.2275 -3.22297,-5.819 0,-2.1801 3.03904,-3.4758 5.59631,-2.3862 1.44939,0.6176 3.73861,4.9416 3.39303,6.4088 -0.22508,0.9543 0.19326,2.0496 2.04096,5.3338 1.27818,2.2731 2.23512,4.3173 2.12644,4.5427 -0.10913,0.2253 -2.9174,2.1033 -6.242,4.1731 -7.38082,4.5949 -7.37445,4.5899 -7.3765,5.8027 0,0.8772 -0.59294,1.8172 -2.39654,3.8093 -0.46562,0.5143 -0.43174,0.8211 0.18189,1.6483 0.7107,0.9578 0.70229,1.0672 -0.14778,1.9035 -0.77278,0.7597 -0.89532,1.4179 -0.85099,4.5755 0.0296,2.0287 0.0409,3.8944 0.025,4.1459 -0.0227,0.316 -0.93556,0.4577 -2.96038,0.4577 -2.04596,0 -3.10588,0.1656 -3.50534,0.5492 -0.73344,0.7036 -2.02572,0.7036 -2.7594,0 -0.8628,-0.8278 -43.2841,-0.8278 -44.14713,0 -0.71753,0.6882 -1.80656,0.6842 -2.96197,-0.02 -0.51746,-0.3117 -1.89136,-0.5377 -3.26935,-0.5377 -2.02254,0 -2.67732,-0.1897 -4.39566,-1.2778 -1.11062,-0.7027 -2.48998,-1.2794 -3.06519,-1.2814 -0.6816,0 -1.19383,-0.3127 -1.46984,-0.8909 -0.25782,-0.5397 -8.02923,-5.598 -19.82731,-12.9054 -10.67199,-6.6096 -19.5297,-12.0178 -19.68408,-12.0178 -0.1546,0 -0.38377,8.1552 -0.50995,18.1225 l -0.23008,18.1223 v 0 m 23.74713,-29.189 c 0.30988,-0.8559 0.83552,-1.8811 1.16814,-2.2782 0.48495,-0.5789 0.60476,-5.604 0.60476,-25.3395 0,-24.0119 -0.0227,-24.6649 -0.95011,-26.553 -0.52269,-1.0646 -1.19634,-2.1364 -1.49713,-2.3821 -0.42697,-0.3487 -2.71074,0.8806 -10.43122,5.6151 -5.43672,3.3339 -10.45396,6.4602 -11.14944,6.9478 l -1.26477,0.8861 v 15.2822 c 0,8.4053 0.17961,15.4995 0.3915,15.7648 0.57271,0.7191 21.35491,13.55 22.0015,13.5837 0.30602,0.02 0.80983,-0.6713 1.11972,-1.5269 z"
             style="fill:#000000;stroke:#000000;stroke-width:6.42739868;stroke-miterlimit:4;stroke-dasharray:none;stroke-opacity:1" />
          <path
             sodipodi:nodetypes="ccsccccsccccsccscscccscccccccccccccscsscccccscscsssccccccccccscscccscscscsscsccsccccscscccccscscccccccccccsccccsccccscccccscccccscccc"
             inkscape:connector-curvature="0"
             id="path149"
             d="m 645.7777,-539.0067 c 0.69661,0.916 0.91237,2.1125 1.09698,6.0827 0.12732,2.7183 0.3524,4.9424 0.502,4.9424 0.15005,0 8.99094,-5.3542 19.64747,-11.8985 15.60626,-9.5837 19.45059,-12.1122 19.76161,-12.9967 0.31829,-0.9055 0.63022,-1.1008 1.77563,-1.1115 0.85212,0 2.11053,-0.468 3.25548,-1.1899 1.57215,-0.9911 2.25217,-1.1767 4.31222,-1.1767 2.10166,0 2.58411,-0.1373 3.42873,-0.9814 l 0.98285,-0.9814 1.07175,0.9814 1.07174,0.9814 h 21.52679 c 21.02887,0 21.54019,-0.02 22.1013,-0.7323 0.73663,-0.9388 2.0214,-0.9388 2.65254,0 0.41424,0.6162 0.96284,0.7323 3.4651,0.7323 h 2.97311 v 4.3373 c 0,3.8179 0.1114,4.4387 0.92351,5.1851 0.84326,0.7739 0.86326,0.921 0.22985,1.6905 -0.96557,1.1734 -0.88645,1.5123 0.68593,2.9381 0.75891,0.6881 1.37959,1.6293 1.37959,2.0917 0,0.647 1.57965,1.8301 6.86199,5.1398 3.77385,2.3646 6.95249,4.493 7.06366,4.7298 0.11141,0.2368 -0.90168,2.3696 -2.24989,4.7395 -1.84566,3.2434 -2.38585,4.5717 -2.18487,5.3714 0.2801,1.1145 -1.46712,4.6868 -2.91559,5.9609 -1.03605,0.9114 -4.00689,0.8648 -5.19549,-0.081 -1.25568,-0.9996 -1.16747,-2.6525 0.28692,-5.3807 0.89145,-1.6719 1.52691,-2.3573 2.41586,-2.6059 0.92738,-0.2592 1.55715,-0.9907 2.72666,-3.1669 0.83643,-1.5564 1.45711,-3.1352 1.37958,-3.5081 -0.0773,-0.3731 -2.5209,-2.168 -5.42967,-3.9885 -5.06567,-3.1705 -5.3851,-3.3096 -7.58771,-3.3058 -2.20283,0 -2.53568,0.1514 -7.9326,3.5025 -3.09838,1.924 -5.63338,3.7098 -5.63338,3.9682 0,0.9059 3.20478,5.982 3.91344,6.1984 0.99377,0.3037 3.44441,4.7912 3.44441,6.3072 0,1.7002 -1.3457,2.7117 -3.60765,2.7117 -2.16918,0 -2.78872,-0.5058 -4.63802,-3.7874 -1.50031,-2.662 -1.69742,-3.5269 -0.94147,-4.1285 0.31989,-0.2548 -0.19325,-1.5655 -1.60967,-4.108 -1.14359,-2.0535 -2.07187,-4.0187 -2.06278,-4.367 0.0227,-0.3717 2.52659,-2.174 6.09331,-4.3637 7.70867,-4.7327 8.14587,-5.0668 8.14587,-6.2257 0,-0.5267 0.53564,-1.517 1.1902,-2.2002 1.13131,-1.1807 1.23044,-2.3049 0.20462,-2.3049 -0.72094,0 -0.56612,-1.3141 0.21598,-1.8305 0.49904,-0.3297 0.68979,-1.2025 0.68979,-3.1567 0,-2.6371 -0.0273,-2.7011 -1.14973,-2.7011 -0.63227,0 -1.14972,0.1474 -1.14972,0.3271 0,0.6301 -1.52009,0.7835 -2.28696,0.2309 -1.16564,-0.8397 -43.65059,-0.8403 -45.26026,-6e-4 -0.95693,0.4991 -1.12949,0.4991 -1.64968,0 -0.9683,-0.9289 -4.29585,-0.7189 -5.92712,0.3739 -0.76459,0.5122 -1.50531,1.2197 -1.64558,1.572 -0.14096,0.3523 -0.89601,0.7981 -1.67901,0.9907 -0.78278,0.1918 -3.98233,1.9152 -7.10982,3.8281 -5.01361,3.0666 -5.79593,3.6945 -6.61509,5.3086 -2.56205,5.0496 -2.52363,4.5899 -2.66549,31.9517 -0.10913,21.2164 -0.025,25.5248 0.51495,26.3598 0.49836,0.7699 2.58524,7.7401 2.58524,8.6349 0,0.095 2.67823,1.835 5.95145,3.8653 4.02939,2.499 6.33476,3.6914 7.13778,3.6914 0.85576,0 1.33729,0.2804 1.72902,1.0069 0.9342,1.7328 2.63935,2.6264 5.03976,2.6409 1.75767,0.02 2.20692,-0.1211 2.44542,-0.7189 0.16142,-0.4028 0.58111,-0.7323 0.93442,-0.7323 0.35331,0 0.86417,0.3295 1.13495,0.7323 0.48154,0.7165 0.96285,0.7321 22.53351,0.7321 21.57043,0 22.05151,-0.02 22.53328,-0.7321 0.27077,-0.4028 0.78141,-0.7323 1.13472,-0.7323 0.35353,0 0.77414,0.3295 0.93465,0.7323 0.18643,0.4678 0.69593,0.7321 1.4105,0.7321 1.08426,0 1.11881,-0.083 1.11881,-2.7066 0,-2.0683 -0.16369,-2.7563 -0.68979,-2.9172 -0.37945,-0.1151 -0.68979,-0.5278 -0.68979,-0.9154 0,-0.3875 0.31034,-0.7993 0.68979,-0.9152 1.01855,-0.3111 0.84053,-1.3931 -0.45994,-2.7965 -0.63227,-0.6824 -1.14972,-1.6187 -1.14972,-2.0811 0,-0.6467 -1.63854,-1.8748 -7.10982,-5.329 -3.91071,-2.4686 -7.2103,-4.6844 -7.33284,-4.9238 -0.12278,-0.2397 0.81438,-2.2798 2.08188,-4.534 1.63149,-2.9014 2.16145,-4.2123 1.81428,-4.4887 -0.26964,-0.2146 -0.49017,-0.6663 -0.49017,-1.0036 0,-1.1018 3.14589,-6.1392 4.0835,-6.5388 2.57456,-1.0971 5.57381,0.2308 5.57381,2.468 0,1.7496 -2.68028,6.265 -3.85911,6.5016 -0.68683,0.1373 -1.42096,1.0343 -2.51658,3.0726 -0.85076,1.5829 -1.47143,3.0446 -1.37958,3.2483 0.0932,0.2037 2.7187,1.9485 5.83731,3.8774 7.63205,4.7211 7.32353,4.7256 15.25409,-0.2235 3.28799,-2.0516 5.97804,-3.8481 5.97804,-3.9918 0,-0.829 -3.91162,-6.5651 -4.59459,-6.7377 -1.02492,-0.259 -3.22297,-4.2275 -3.22297,-5.819 0,-2.1801 3.03904,-3.4758 5.59631,-2.3862 1.44939,0.6176 3.73861,4.9416 3.39303,6.4088 -0.22508,0.9543 0.19326,2.0496 2.04096,5.3338 1.27818,2.2731 2.23512,4.3173 2.12644,4.5427 -0.10913,0.2253 -2.9174,2.1033 -6.242,4.1731 -7.38082,4.5949 -7.37445,4.5899 -7.3765,5.8027 0,0.8772 -0.59294,1.8172 -2.39654,3.8093 -0.46562,0.5143 -0.43174,0.8211 0.18189,1.6483 0.7107,0.9578 0.70229,1.0672 -0.14778,1.9035 -0.77278,0.7597 -0.89532,1.4179 -0.85099,4.5755 0.0296,2.0287 0.0409,3.8944 0.025,4.1459 -0.0227,0.316 -0.93556,0.4577 -2.96038,0.4577 -2.04596,0 -3.10588,0.1656 -3.50534,0.5492 -0.73344,0.7036 -2.02572,0.7036 -2.7594,0 -0.8628,-0.8278 -43.2841,-0.8278 -44.14713,0 -0.71753,0.6882 -1.80656,0.6842 -2.96197,-0.02 -0.51746,-0.3117 -1.89136,-0.5377 -3.26935,-0.5377 -2.02254,0 -2.67732,-0.1897 -4.39566,-1.2778 -1.11062,-0.7027 -2.48998,-1.2794 -3.06519,-1.2814 -0.6816,0 -1.19383,-0.3127 -1.46984,-0.8909 -0.25782,-0.5397 -8.02923,-5.598 -19.82731,-12.9054 -10.67199,-6.6096 -19.5297,-12.0178 -19.68408,-12.0178 -0.1546,0 -0.38377,8.1552 -0.50995,18.1225 l -0.23008,18.1223 v 0 m 23.74713,-29.189 c 0.30988,-0.8559 0.83552,-1.8811 1.16814,-2.2782 0.48495,-0.5789 0.60476,-5.604 0.60476,-25.3395 0,-24.0119 -0.0227,-24.6649 -0.95011,-26.553 -0.52269,-1.0646 -1.19634,-2.1364 -1.49713,-2.3821 -0.42697,-0.3487 -2.71074,0.8806 -10.43122,5.6151 -5.43672,3.3339 -10.45396,6.4602 -11.14944,6.9478 l -1.26477,0.8861 v 15.2822 c 0,8.4053 0.17961,15.4995 0.3915,15.7648 0.57271,0.7191 21.35491,13.55 22.0015,13.5837 0.30602,0.02 0.80983,-0.6713 1.11972,-1.5269 z"
             style="fill:#000000;stroke:#000000;stroke-width:6.42739868;stroke-miterlimit:4;stroke-dasharray:none;stroke-opacity:1" />
          <path
             sodipodi:nodetypes="ccsccccsccccsccscscccscccccccccccccscsscccccscscsssccccccccccscscccscscscsscsccsccccscscccccscscccccccccccsccccsccccscccccscccccscccc"
             inkscape:connector-curvature="0"
             id="path151"
             d="m 643.7777,16.9933 c 0.69661,0.916 0.91237,2.1125 1.09698,6.0827 0.12732,2.7183 0.3524,4.9424 0.502,4.9424 0.15005,0 8.99094,-5.3542 19.64747,-11.8985 15.60626,-9.5837 19.45059,-12.1122 19.76161,-12.9967 0.31829,-0.9055 0.63022,-1.1008 1.77563,-1.1115 0.85212,0 2.11053,-0.468 3.25548,-1.18990003 1.57215,-0.9911 2.25217,-1.1767 4.31222,-1.1767 2.10166,0 2.58411,-0.1373 3.42873,-0.98140007 l 0.98285,-0.9814 1.07175,0.9814 1.07174,0.98140007 h 21.52679 c 21.02887,0 21.54019,-0.02 22.1013,-0.73230007 0.73663,-0.9388 2.0214,-0.9388 2.65254,0 0.41424,0.61620007 0.96284,0.73230007 3.4651,0.73230007 H 753.403 V 3.9824 c 0,3.8179 0.1114,4.4387 0.92351,5.1851 0.84326,0.7739 0.86326,0.921 0.22985,1.6905 -0.96557,1.1734 -0.88645,1.5123 0.68593,2.9381 0.75891,0.6881 1.37959,1.6293 1.37959,2.0917 0,0.647 1.57965,1.8301 6.86199,5.1398 3.77385,2.3646 6.95249,4.493 7.06366,4.7298 0.11141,0.2368 -0.90168,2.3696 -2.24989,4.7395 -1.84566,3.2434 -2.38585,4.5717 -2.18487,5.3714 0.2801,1.1145 -1.46712,4.6868 -2.91559,5.9609 -1.03605,0.9114 -4.00689,0.8648 -5.19549,-0.081 -1.25568,-0.9996 -1.16747,-2.6525 0.28692,-5.3807 0.89145,-1.6719 1.52691,-2.3573 2.41586,-2.6059 0.92738,-0.2592 1.55715,-0.9907 2.72666,-3.1669 0.83643,-1.5564 1.45711,-3.1352 1.37958,-3.5081 -0.0773,-0.3731 -2.5209,-2.168 -5.42967,-3.9885 -5.06567,-3.1705 -5.3851,-3.3096 -7.58771,-3.3058 -2.20283,0 -2.53568,0.1514 -7.9326,3.5025 -3.09838,1.924 -5.63338,3.7098 -5.63338,3.9682 0,0.9059 3.20478,5.982 3.91344,6.1984 0.99377,0.3037 3.44441,4.7912 3.44441,6.3072 0,1.7002 -1.3457,2.7117 -3.60765,2.7117 -2.16918,0 -2.78872,-0.5058 -4.63802,-3.7874 -1.50031,-2.662 -1.69742,-3.5269 -0.94147,-4.1285 0.31989,-0.2548 -0.19325,-1.5655 -1.60967,-4.108 -1.14359,-2.0535 -2.07187,-4.0187 -2.06278,-4.367 0.0227,-0.3717 2.52659,-2.174 6.09331,-4.3637 7.70867,-4.7327 8.14587,-5.0668 8.14587,-6.2257 0,-0.5267 0.53564,-1.517 1.1902,-2.2002 1.13131,-1.1807 1.23044,-2.3049 0.20462,-2.3049 -0.72094,0 -0.56612,-1.3141 0.21598,-1.8305 0.49904,-0.3297 0.68979,-1.2025 0.68979,-3.1567 0,-2.6371 -0.0273,-2.7011 -1.14973,-2.7011 -0.63227,0 -1.14972,0.1474 -1.14972,0.3271 0,0.6301 -1.52009,0.7835 -2.28696,0.2309 -1.16564,-0.8397 -43.65059,-0.8403 -45.26026,-6e-4 -0.95693,0.4991 -1.12949,0.4991 -1.64968,0 -0.9683,-0.9289 -4.29585,-0.7189 -5.92712,0.3739 -0.76459,0.5122 -1.50531,1.2197 -1.64558,1.572 -0.14096,0.3523 -0.89601,0.7981 -1.67901,0.9907 -0.78278,0.1918 -3.98233,1.9152 -7.10982,3.8281 -5.01361,3.0666 -5.79593,3.6945 -6.61509,5.3086 -2.56205,5.0496 -2.52363,4.5899 -2.66549,31.9517 -0.10913,21.2164 -0.025,25.5248 0.51495,26.3598 0.49836,0.7699 2.58524,7.7401 2.58524,8.6349 0,0.095 2.67823,1.835 5.95145,3.8653 4.02939,2.499 6.33476,3.6914 7.13778,3.6914 0.85576,0 1.33729,0.2804 1.72902,1.0069 0.9342,1.7328 2.63935,2.6264 5.03976,2.6409 1.75767,0.02 2.20692,-0.1211 2.44542,-0.7189 0.16142,-0.4028 0.58111,-0.7323 0.93442,-0.7323 0.35331,0 0.86417,0.3295 1.13495,0.7323 0.48154,0.7165 0.96285,0.7321 22.53351,0.7321 21.57043,0 22.05151,-0.02 22.53328,-0.7321 0.27077,-0.4028 0.78141,-0.7323 1.13472,-0.7323 0.35353,0 0.77414,0.3295 0.93465,0.7323 0.18643,0.4678 0.69593,0.7321 1.4105,0.7321 1.08426,0 1.11881,-0.083 1.11881,-2.7066 0,-2.0683 -0.16369,-2.7563 -0.68979,-2.9172 -0.37945,-0.1151 -0.68979,-0.5278 -0.68979,-0.9154 0,-0.3875 0.31034,-0.7993 0.68979,-0.9152 1.01855,-0.3111 0.84053,-1.3931 -0.45994,-2.7965 -0.63227,-0.6824 -1.14972,-1.6187 -1.14972,-2.0811 0,-0.6467 -1.63854,-1.8748 -7.10982,-5.329 -3.91071,-2.4686 -7.2103,-4.6844 -7.33284,-4.9238 -0.12278,-0.2397 0.81438,-2.2798 2.08188,-4.534 1.63149,-2.9014 2.16145,-4.2123 1.81428,-4.4887 -0.26964,-0.2146 -0.49017,-0.6663 -0.49017,-1.0036 0,-1.1018 3.14589,-6.1392 4.0835,-6.5388 2.57456,-1.0971 5.57381,0.2308 5.57381,2.468 0,1.7496 -2.68028,6.265 -3.85911,6.5016 -0.68683,0.1373 -1.42096,1.0343 -2.51658,3.0726 -0.85076,1.5829 -1.47143,3.0446 -1.37958,3.2483 0.0932,0.2037 2.7187,1.9485 5.83731,3.8774 7.63205,4.7211 7.32353,4.7256 15.25409,-0.2235 3.28799,-2.0516 5.97804,-3.8481 5.97804,-3.9918 0,-0.829 -3.91162,-6.5651 -4.59459,-6.7377 -1.02492,-0.259 -3.22297,-4.2275 -3.22297,-5.819 0,-2.1801 3.03904,-3.4758 5.59631,-2.3862 1.44939,0.6176 3.73861,4.9416 3.39303,6.4088 -0.22508,0.9543 0.19326,2.0496 2.04096,5.3338 1.27818,2.2731 2.23512,4.3173 2.12644,4.5427 -0.10913,0.2253 -2.9174,2.1033 -6.242,4.1731 -7.38082,4.5949 -7.37445,4.5899 -7.3765,5.8027 0,0.8772 -0.59294,1.8172 -2.39654,3.8093 -0.46562,0.5143 -0.43174,0.8211 0.18189,1.6483 0.7107,0.9578 0.70229,1.0672 -0.14778,1.9035 -0.77278,0.7597 -0.89532,1.4179 -0.85099,4.5755 0.0296,2.0287 0.0409,3.8944 0.025,4.1459 -0.0227,0.316 -0.93556,0.4577 -2.96038,0.4577 -2.04596,0 -3.10588,0.1656 -3.50534,0.5492 -0.73344,0.7036 -2.02572,0.7036 -2.7594,0 -0.8628,-0.8278 -43.2841,-0.8278 -44.14713,0 -0.71753,0.6882 -1.80656,0.6842 -2.96197,-0.02 -0.51746,-0.3117 -1.89136,-0.5377 -3.26935,-0.5377 -2.02254,0 -2.67732,-0.1897 -4.39566,-1.2778 -1.11062,-0.7027 -2.48998,-1.2794 -3.06519,-1.2814 -0.6816,0 -1.19383,-0.3127 -1.46984,-0.8909 -0.25782,-0.5397 -8.02923,-5.598 -19.82731,-12.9054 -10.67199,-6.6096 -19.5297,-12.0178 -19.68408,-12.0178 -0.1546,0 -0.38377,8.1552 -0.50995,18.1225 l -0.23008,18.1223 v 0 m 23.74713,-29.189 c 0.30988,-0.8559 0.83552,-1.8811 1.16814,-2.2782 0.48495,-0.5789 0.60476,-5.604 0.60476,-25.3395 0,-24.0119 -0.0227,-24.6649 -0.95011,-26.553 -0.52269,-1.0646 -1.19634,-2.1364 -1.49713,-2.3821 -0.42697,-0.3487 -2.71074,0.8806 -10.43122,5.6151 -5.43672,3.3339 -10.45396,6.4602 -11.14944,6.9478 l -1.26477,0.8861 v 15.2822 c 0,8.4053 0.17961,15.4995 0.3915,15.7648 0.57271,0.7191 21.35491,13.55 22.0015,13.5837 0.30602,0.02 0.80983,-0.6713 1.11972,-1.5269 z"
             style="fill:#000000;stroke:#000000;stroke-width:6.42739868;stroke-miterlimit:4;stroke-dasharray:none;stroke-opacity:1" />
          <path
             sodipodi:nodetypes="ccsccccsccccsccscscccscccccccccccccscsscccccscscsssccccccccccscscccscscscsscsccsccccscscccccscscccccccccccsccccsccccscccccscccccscccc"
             inkscape:connector-curvature="0"
             id="path155"
             d="m 643.7777,594.9933 c 0.69661,0.916 0.91237,2.1125 1.09698,6.0827 0.12732,2.7183 0.3524,4.9424 0.502,4.9424 0.15005,0 8.99094,-5.3542 19.64747,-11.8985 15.60626,-9.5837 19.45059,-12.1122 19.76161,-12.9967 0.31829,-0.9055 0.63022,-1.1008 1.77563,-1.1115 0.85212,0 2.11053,-0.468 3.25548,-1.1899 1.57215,-0.9911 2.25217,-1.1767 4.31222,-1.1767 2.10166,0 2.58411,-0.1373 3.42873,-0.9814 l 0.98285,-0.9814 1.07175,0.9814 1.07174,0.9814 h 21.52679 c 21.02887,0 21.54019,-0.02 22.1013,-0.7323 0.73663,-0.9388 2.0214,-0.9388 2.65254,0 0.41424,0.6162 0.96284,0.7323 3.4651,0.7323 h 2.97311 v 4.3373 c 0,3.8179 0.1114,4.4387 0.92351,5.1851 0.84326,0.7739 0.86326,0.921 0.22985,1.6905 -0.96557,1.1734 -0.88645,1.5123 0.68593,2.9381 0.75891,0.6881 1.37959,1.6293 1.37959,2.0917 0,0.647 1.57965,1.8301 6.86199,5.1398 3.77385,2.3646 6.95249,4.493 7.06366,4.7298 0.11141,0.2368 -0.90168,2.3696 -2.24989,4.7395 -1.84566,3.2434 -2.38585,4.5717 -2.18487,5.3714 0.2801,1.1145 -1.46712,4.6868 -2.91559,5.9609 -1.03605,0.9114 -4.00689,0.8648 -5.19549,-0.081 -1.25568,-0.9996 -1.16747,-2.6525 0.28692,-5.3807 0.89145,-1.6719 1.52691,-2.3573 2.41586,-2.6059 0.92738,-0.2592 1.55715,-0.9907 2.72666,-3.1669 0.83643,-1.5564 1.45711,-3.1352 1.37958,-3.5081 -0.0773,-0.3731 -2.5209,-2.168 -5.42967,-3.9885 -5.06567,-3.1705 -5.3851,-3.3096 -7.58771,-3.3058 -2.20283,0 -2.53568,0.1514 -7.9326,3.5025 -3.09838,1.924 -5.63338,3.7098 -5.63338,3.9682 0,0.9059 3.20478,5.982 3.91344,6.1984 0.99377,0.3037 3.44441,4.7912 3.44441,6.3072 0,1.7002 -1.3457,2.7117 -3.60765,2.7117 -2.16918,0 -2.78872,-0.5058 -4.63802,-3.7874 -1.50031,-2.662 -1.69742,-3.5269 -0.94147,-4.1285 0.31989,-0.2548 -0.19325,-1.5655 -1.60967,-4.108 -1.14359,-2.0535 -2.07187,-4.0187 -2.06278,-4.367 0.0227,-0.3717 2.52659,-2.174 6.09331,-4.3637 7.70867,-4.7327 8.14587,-5.0668 8.14587,-6.2257 0,-0.5267 0.53564,-1.517 1.1902,-2.2002 1.13131,-1.1807 1.23044,-2.3049 0.20462,-2.3049 -0.72094,0 -0.56612,-1.3141 0.21598,-1.8305 0.49904,-0.3297 0.68979,-1.2025 0.68979,-3.1567 0,-2.6371 -0.0273,-2.7011 -1.14973,-2.7011 -0.63227,0 -1.14972,0.1474 -1.14972,0.3271 0,0.6301 -1.52009,0.7835 -2.28696,0.2309 -1.16564,-0.8397 -43.65059,-0.8403 -45.26026,-6e-4 -0.95693,0.4991 -1.12949,0.4991 -1.64968,0 -0.9683,-0.9289 -4.29585,-0.7189 -5.92712,0.3739 -0.76459,0.5122 -1.50531,1.2197 -1.64558,1.572 -0.14096,0.3523 -0.89601,0.7981 -1.67901,0.9907 -0.78278,0.1918 -3.98233,1.9152 -7.10982,3.8281 -5.01361,3.0666 -5.79593,3.6945 -6.61509,5.3086 -2.56205,5.0496 -2.52363,4.5899 -2.66549,31.9517 -0.10913,21.2164 -0.025,25.5248 0.51495,26.3598 0.49836,0.7699 2.58524,7.7401 2.58524,8.6349 0,0.095 2.67823,1.835 5.95145,3.8653 4.02939,2.499 6.33476,3.6914 7.13778,3.6914 0.85576,0 1.33729,0.2804 1.72902,1.0069 0.9342,1.7328 2.63935,2.6264 5.03976,2.6409 1.75767,0.02 2.20692,-0.1211 2.44542,-0.7189 0.16142,-0.4028 0.58111,-0.7323 0.93442,-0.7323 0.35331,0 0.86417,0.3295 1.13495,0.7323 0.48154,0.7165 0.96285,0.7321 22.53351,0.7321 21.57043,0 22.05151,-0.02 22.53328,-0.7321 0.27077,-0.4028 0.78141,-0.7323 1.13472,-0.7323 0.35353,0 0.77414,0.3295 0.93465,0.7323 0.18643,0.4678 0.69593,0.7321 1.4105,0.7321 1.08426,0 1.11881,-0.083 1.11881,-2.7066 0,-2.0683 -0.16369,-2.7563 -0.68979,-2.9172 -0.37945,-0.1151 -0.68979,-0.5278 -0.68979,-0.9154 0,-0.3875 0.31034,-0.7993 0.68979,-0.9152 1.01855,-0.3111 0.84053,-1.3931 -0.45994,-2.7965 -0.63227,-0.6824 -1.14972,-1.6187 -1.14972,-2.0811 0,-0.6467 -1.63854,-1.8748 -7.10982,-5.329 -3.91071,-2.4686 -7.2103,-4.6844 -7.33284,-4.9238 -0.12278,-0.2397 0.81438,-2.2798 2.08188,-4.534 1.63149,-2.9014 2.16145,-4.2123 1.81428,-4.4887 -0.26964,-0.2146 -0.49017,-0.6663 -0.49017,-1.0036 0,-1.1018 3.14589,-6.1392 4.0835,-6.5388 2.57456,-1.0971 5.57381,0.2308 5.57381,2.468 0,1.7496 -2.68028,6.265 -3.85911,6.5016 -0.68683,0.1373 -1.42096,1.0343 -2.51658,3.0726 -0.85076,1.5829 -1.47143,3.0446 -1.37958,3.2483 0.0932,0.2037 2.7187,1.9485 5.83731,3.8774 7.63205,4.7211 7.32353,4.7256 15.25409,-0.2235 3.28799,-2.0516 5.97804,-3.8481 5.97804,-3.9918 0,-0.829 -3.91162,-6.5651 -4.59459,-6.7377 -1.02492,-0.259 -3.22297,-4.2275 -3.22297,-5.819 0,-2.1801 3.03904,-3.4758 5.59631,-2.3862 1.44939,0.6176 3.73861,4.9416 3.39303,6.4088 -0.22508,0.9543 0.19326,2.0496 2.04096,5.3338 1.27818,2.2731 2.23512,4.3173 2.12644,4.5427 -0.10913,0.2253 -2.9174,2.1033 -6.242,4.1731 -7.38082,4.5949 -7.37445,4.5899 -7.3765,5.8027 0,0.8772 -0.59294,1.8172 -2.39654,3.8093 -0.46562,0.5143 -0.43174,0.8211 0.18189,1.6483 0.7107,0.9578 0.70229,1.0672 -0.14778,1.9035 -0.77278,0.7597 -0.89532,1.4179 -0.85099,4.5755 0.0296,2.0287 0.0409,3.8944 0.025,4.1459 -0.0227,0.316 -0.93556,0.4577 -2.96038,0.4577 -2.04596,0 -3.10588,0.1656 -3.50534,0.5492 -0.73344,0.7036 -2.02572,0.7036 -2.7594,0 -0.8628,-0.8278 -43.2841,-0.8278 -44.14713,0 -0.71753,0.6882 -1.80656,0.6842 -2.96197,-0.02 -0.51746,-0.3117 -1.89136,-0.5377 -3.26935,-0.5377 -2.02254,0 -2.67732,-0.1897 -4.39566,-1.2778 -1.11062,-0.7027 -2.48998,-1.2794 -3.06519,-1.2814 -0.6816,0 -1.19383,-0.3127 -1.46984,-0.8909 -0.25782,-0.5397 -8.02923,-5.598 -19.82731,-12.9054 -10.67199,-6.6096 -19.5297,-12.0178 -19.68408,-12.0178 -0.1546,0 -0.38377,8.1552 -0.50995,18.1225 l -0.23008,18.1223 v 0 m 23.74713,-29.189 c 0.30988,-0.8559 0.83552,-1.8811 1.16814,-2.2782 0.48495,-0.5789 0.60476,-5.604 0.60476,-25.3395 0,-24.0119 -0.0227,-24.6649 -0.95011,-26.553 -0.52269,-1.0646 -1.19634,-2.1364 -1.49713,-2.3821 -0.42697,-0.3487 -2.71074,0.8806 -10.43122,5.6151 -5.43672,3.3339 -10.45396,6.4602 -11.14944,6.9478 l -1.26477,0.8861 v 15.2822 c 0,8.4053 0.17961,15.4995 0.3915,15.7648 0.57271,0.7191 21.35491,13.55 22.0015,13.5837 0.30602,0.02 0.80983,-0.6713 1.11972,-1.5269 z"
             style="fill:#000000;stroke:#000000;stroke-width:6.42739868;stroke-miterlimit:4;stroke-dasharray:none;stroke-opacity:1" />
          <text
             xml:space="preserve"
             style="font-style:normal;font-weight:normal;font-size:40px;line-height:1.25;font-family:sans-serif;letter-spacing:0px;word-spacing:0px;fill:#000000;fill-opacity:1;stroke:none"
             x="187.97281"
             y="82.065918"
             id="text3795"><tspan
               sodipodi:role="line"
               x="187.97281"
               y="82.065918"
               style="font-style:normal;font-variant:normal;font-weight:bold;font-stretch:normal;font-size:106.66667175px;font-family:Roboto;-inkscape-font-specification:'Roboto Bold'"
               id="tspan3819">  11 m</tspan></text>
          <text
             id="text3799"
             y="-471.93408"
             x="101.97281"
             style="font-style:normal;font-weight:normal;font-size:40px;line-height:1.25;font-family:sans-serif;letter-spacing:0px;word-spacing:0px;fill:#000000;fill-opacity:1;stroke:none"
             xml:space="preserve"><tspan
               style="font-style:normal;font-variant:normal;font-weight:bold;font-stretch:normal;font-size:106.66667175px;font-family:Roboto;-inkscape-font-specification:'Roboto Bold'"
               y="-471.93408"
               x="101.97281"
               sodipodi:role="line"
               id="tspan3815"> 17.5  m</tspan></text>
          <text
             id="text3807"
             y="-1119.9341"
             x="187.97281"
             style="font-style:normal;font-weight:normal;font-size:40px;line-height:1.25;font-family:sans-serif;letter-spacing:0px;word-spacing:0px;fill:#000000;fill-opacity:1;stroke:none"
             xml:space="preserve"><tspan
               style="font-style:normal;font-variant:normal;font-weight:bold;font-stretch:normal;font-size:106.66667175px;font-family:Roboto;-inkscape-font-specification:'Roboto Bold'"
               y="-1119.9341"
               x="187.97281"
               id="tspan3805"
               sodipodi:role="line">  25 m</tspan></text>
          <text
             id="text3837"
             y="668.06592"
             x="187.97281"
             style="font-style:normal;font-weight:normal;font-size:40px;line-height:1.25;font-family:sans-serif;letter-spacing:0px;word-spacing:0px;fill:#000000;fill-opacity:1;stroke:none"
             xml:space="preserve"><tspan
               style="font-style:normal;font-variant:normal;font-weight:bold;font-stretch:normal;font-size:106.66667175px;font-family:Roboto;-inkscape-font-specification:'Roboto Bold'"
               y="668.06592"
               x="187.97281"
               id="tspan3835"
               sodipodi:role="line">    5 m</tspan></text>
        </g>
        <text
           id="text6974"
           y="847.66174"
           x="558.90094"
           style="font-style:normal;font-weight:normal;font-size:77.74708557px;line-height:1.25;font-family:sans-serif;letter-spacing:0px;word-spacing:0px;fill:#000000;fill-opacity:1;stroke:none;stroke-width:1.94367707"
           xml:space="preserve"
           transform="scale(0.98303275,1.0172601)"><tspan
             style="font-style:normal;font-variant:normal;font-weight:bold;font-stretch:normal;font-size:120.00001526px;font-family:Roboto;-inkscape-font-specification:'Roboto Bold';stroke-width:1.94367707"
             y="847.66174"
             x="558.90094"
             id="tspan6972"
             sodipodi:role="line">North</tspan></text>
        <g
           transform="matrix(1.6801123,0,0,2.1379042,-296.02596,-825.74988)"
           id="g7529">
          <path
             sodipodi:type="star"
             style="fill:#000000;fill-opacity:0;stroke:#000000;stroke-width:20;stroke-miterlimit:4;stroke-dasharray:none;stroke-dashoffset:0;stroke-opacity:1"
             id="path6980"
             sodipodi:sides="3"
             sodipodi:cx="439.19763"
             sodipodi:cy="768.99158"
             sodipodi:r1="13"
             sodipodi:r2="6.5"
             sodipodi:arg1="0"
             sodipodi:arg2="1.0471976"
             inkscape:flatsided="true"
             inkscape:rounded="0"
             inkscape:randomized="0"
             d="m 452.19763,768.99158 -19.5,11.25833 v -22.51666 z"
             inkscape:transform-center-x="-0.55976849"
             inkscape:transform-center-y="-3.3612366e-06"
             transform="matrix(0.65097021,0,0,0.32763422,156.92002,518.39839)" />
          <path
             style="fill:none;stroke:#000000;stroke-width:4.36383533;stroke-linecap:butt;stroke-linejoin:miter;stroke-miterlimit:4;stroke-dasharray:none;stroke-opacity:1"
             d="M 432.44762,770.03682 H 336.39647"
             id="path6982"
             inkscape:connector-curvature="0" />
        </g>
      </g>
    </g>
  </g>
</svg>
